# xmcd
#
# Track frame offsets:
#	150
#	10760
#	25353
#	36768
#
# Disc length: 634 seconds
#
# Revision: 0
# Processed by: cddbd v1.5.2PL0 Copyright (c) Steve Scherf et al.
# Submitted via: EasyCDDAExtractor 5.0.2.1
#
DISCID=25027804
DTITLE=Chitlin' Fooks - The Battle
DYEAR=2002
DGENRE=Country
TTITLE0=The Battle
TTITLE1=You and Me
TTITLE2=Another Man
TTITLE3=The Battle (Acoustic)
EXTD=
EXTT0=
EXTT1=
EXTT2=
EXTT3=
PLAYORDER=
